<svg preserveAspectRatio="none" width="100%" height="100%" overflow="visible" style="display: block;" viewBox="0 0 186.594 75.8265" fill="none" xmlns="http://www.w3.org/2000/svg">
<g id="Group 42">
<path id="Vector" d="M45.9463 18.3556C48.0344 18.2569 50.4809 18.3215 52.6108 18.3225L64.5347 18.3258L72.8493 18.3193C74.3976 18.3157 76.12 18.2285 77.642 18.3647C81.5175 18.7115 80.7188 23.2174 80.7165 25.9182L80.7143 34.6649L80.7188 44.6581C80.7188 46.253 80.8834 50.7468 80.2749 52.0349C79.316 54.0631 76.6598 56.7594 75.036 58.3806C73.6291 59.7852 69.448 59.5232 67.5287 59.5222L59.8814 59.5173L50.8371 59.5281C49.066 59.5298 46.8153 59.5974 45.0908 59.4114C44.5852 59.2357 44.1466 59.0058 43.6682 58.7693C43.1291 57.8661 42.7584 56.6707 42.8333 55.6428C42.9519 54.0117 42.6483 50.0357 42.9963 48.6129C43.1424 47.9905 43.4568 47.4205 43.9052 46.9651C45.1392 45.719 50.9745 46.1054 52.8463 46.1074L66.3135 46.1073C66.1706 41.9194 66.2488 36.1054 66.3186 31.9028C63.3683 31.8237 60.1832 31.8789 57.2198 31.8828C57.3011 40.1087 58.1895 41.6661 48.7123 41.1981C46.9797 41.1125 42.9877 41.5741 42.8742 38.6276C42.6587 33.0356 42.7942 27.3615 42.8204 21.7598C42.8304 19.6359 43.9589 18.6911 45.9463 18.3556Z" fill="var(--fill-0, #0000FF)"/>
<path id="Vector_2" d="M150.373 18.3555C152.478 18.2533 154.969 18.3214 157.116 18.3226L169.172 18.3262L177.862 18.3192C179.24 18.3173 181.513 18.2539 182.814 18.371C183.551 18.439 184.265 18.6596 184.912 19.019C186.786 20.0449 186.565 21.8857 186.588 23.7246C186.603 24.9606 186.583 26.2032 186.579 27.4395L186.57 36.4795L186.575 49.5094C186.576 51.8691 186.601 54.245 186.536 56.5926C186.458 57.8568 186.089 58.7435 184.824 59.1739C183.849 59.5114 182.753 59.5449 181.713 59.5231C179.284 59.472 176.741 59.7058 174.336 59.3638C173.923 59.3049 173.14 58.8052 172.771 58.5811C171.868 56.8527 172.146 54.1169 172.148 52.1528L172.158 43.2276C172.153 39.5306 172.078 35.5802 172.183 31.9026C168.706 31.8081 165.14 31.9692 161.679 31.8897L161.688 48.5177C161.691 51.1443 161.722 53.7768 161.687 56.4013C161.661 58.361 160.303 59.4746 158.409 59.4842C155.674 59.4981 152.932 59.6141 150.201 59.4772C146.534 59.2935 147.202 55.1277 147.203 52.5379L147.202 44.6394L147.198 29.8184C147.198 27.2117 147.186 24.6091 147.23 22.0023C147.267 19.746 148.201 18.7849 150.373 18.3555Z" fill="var(--fill-0, #0000FF)"/>
<path id="Vector_3" d="M3.47389 18.3474C5.19689 18.2585 7.44598 18.3214 9.19812 18.3218L19.5452 18.3179L26.6911 18.3135C31.1404 18.3122 36.3602 18.1325 37.9883 23.5929C38.5518 25.4826 38.3767 28.441 38.3779 30.4627L38.3764 39.9078L38.3723 50.5274C38.3797 52.4837 38.4251 54.4429 38.3663 56.3971C38.3213 57.8973 37.2493 59.2697 35.7335 59.4664C32.6663 59.5478 28.8939 59.7082 25.8242 59.3304C25.519 59.2929 24.8948 58.8914 24.6042 58.7079C23.7348 57.0811 23.8568 54.4226 23.9019 52.5769C24.0693 45.7485 23.6659 38.7153 23.9421 31.9103C16.9773 31.6792 9.84419 32.0744 2.86725 31.8325C0.83404 31.762 -0.00169729 29.9248 0.0531969 28.0881C0.120974 25.8203 -0.101178 23.3925 0.0600312 21.1134C0.202756 19.211 1.88689 18.588 3.47389 18.3474Z" fill="var(--fill-0, #0000FF)"/>
<path id="Vector_4" d="M131.246 18.3406C134.09 18.2022 137.322 18.2848 140.171 18.3959C141.499 18.4477 142.715 19.5777 142.772 20.9743C142.848 22.8445 142.825 24.7445 142.825 26.6361L142.826 37.6837L142.825 50.3524C142.826 52.5341 142.877 54.7462 142.789 56.925C142.723 58.5504 141.552 59.3382 140.026 59.472C137.941 59.5289 131.189 59.8994 129.624 59.0224C128.97 58.6554 128.544 57.775 128.37 57.0607C128.055 55.7762 128.245 54.0097 128.244 52.6806L128.246 44.2919L128.244 29.6526C128.245 27.0327 128.204 24.3974 128.291 21.7805C128.356 19.8588 129.448 18.7982 131.246 18.3406Z" fill="var(--fill-0, #0000FF)"/>
<path id="Vector_5" d="M3.55903 37.737C3.70019 37.7135 3.84247 37.6961 3.98519 37.6851C6.41398 37.4955 9.87253 37.7897 12.3408 37.9654C14.1341 38.0929 14.8627 39.4947 14.8746 41.2092C14.9095 46.2324 14.9905 51.3388 14.827 56.3625C14.7621 58.3294 13.9083 59.3467 11.9386 59.4798C9.9551 59.5154 3.3725 59.8822 2.01012 59.1546C1.31196 58.7818 0.744306 58.0318 0.538733 57.272C0.158507 55.8668 0.408332 50.5024 0.408444 48.6925C0.408556 46.2367 0.266727 43.6982 0.4248 41.2517C0.461882 40.6778 0.521595 39.8606 0.817687 39.3589C1.38444 38.3986 2.538 37.9873 3.55903 37.737Z" fill="var(--fill-0, #0000FF)"/>
<path id="Vector_6" d="M110.676 4.05046C112.495 3.59205 114.454 3.16075 116.196 2.66351C117.406 2.37562 118.553 2.46852 119.433 2.88195C120.283 3.28117 120.954 4.00694 121.24 5.1761L121.24 5.17705C122.131 8.80999 123.412 12.8481 124.502 16.7506C125.601 20.6847 126.525 24.5471 126.802 28.0551C126.8 28.0677 126.798 28.0887 126.791 28.1179C126.767 28.2096 126.723 28.3427 126.652 28.521C126.509 28.8776 126.288 29.3385 125.996 29.8856C125.416 30.9762 124.607 32.3193 123.741 33.6898C122.013 36.4256 120.105 39.1965 119.46 40.1245L118.824 41.0389L119.704 41.7201C121.945 43.4552 124.16 45.2222 126.35 47.0206L126.357 47.0267C127.854 48.2365 128.902 49.0623 129.676 49.7711C130.436 50.4673 130.837 50.9687 131.083 51.4837C131.328 51.9982 131.466 52.6269 131.524 53.6594C131.583 54.7029 131.556 56.0379 131.534 57.9566C131.507 58.327 131.481 58.7179 131.424 59.0931C131.363 59.5032 131.284 59.7521 131.221 59.8633L131.221 59.8645C130.983 60.2842 130.325 60.7361 129.216 61.1599C128.687 61.3623 128.138 61.5295 127.602 61.6793L126.069 62.0931L96.6154 69.9943L86.9514 72.5838C85.7481 72.904 84.7359 73.1591 83.8519 73.3091C82.6701 73.5098 81.8868 73.4892 81.3143 73.2865C80.7951 73.1025 80.3043 72.7161 79.8223 71.831C79.3218 70.9119 78.8714 69.526 78.4477 67.4668C78.2376 66.4457 77.8581 65.2556 77.5306 64.1386C77.191 62.9805 76.8901 61.8466 76.7634 60.7885C76.6362 59.7261 76.6997 58.8481 76.9946 58.1575C77.2713 57.5098 77.7987 56.914 78.8497 56.4745C80.7954 55.661 84.1832 54.9045 86.4585 54.3084C91.2615 53.0501 95.979 51.6712 100.738 50.5589L102.712 50.0979L101.327 48.6177C100.729 47.9786 99.698 47.1715 98.7258 46.4475C97.7926 45.7526 96.6324 44.9319 96.0561 44.5059L87.8714 38.4027L87.8664 38.3989L86.9173 37.6867C85.8815 36.8995 84.6081 35.9104 83.2988 34.9206C81.5971 33.6343 79.8285 32.3429 78.6366 31.6668L78.2097 31.4243L77.7372 31.559C75.385 32.2299 73.735 32.7387 71.4906 33.0093C70.5306 32.5357 69.8783 32.0606 69.4114 31.5808C68.9055 31.061 68.5741 30.4938 68.3165 29.8229C68.0499 29.1283 67.8688 28.3461 67.6519 27.3652C67.4661 26.5248 67.2591 25.565 66.9512 24.5048L66.8127 24.0445C66.1482 21.9014 65.5943 20.2502 65.6668 18.8324C65.7004 18.177 65.8719 17.6135 66.2311 17.101C66.5895 16.5897 67.1843 16.0594 68.1761 15.5496C69.5833 15.076 71.1269 14.6926 72.7182 14.2992C74.3202 13.9031 75.9755 13.4962 77.4796 12.988C80.2036 12.0677 81.8943 12.2419 83.3933 12.929C84.1858 13.2923 84.9702 13.8205 85.8586 14.5078C86.7754 15.2172 87.6709 15.9881 88.8304 16.9165L88.8354 16.9202C91.3222 18.8933 93.7878 20.8927 96.2323 22.9171L96.2362 22.9201C98.4609 24.7453 101.484 26.9685 103.382 28.7478L104.528 29.8218L105.231 28.4171C105.512 27.8563 105.789 27.4556 106.135 26.892C106.471 26.3433 106.816 25.7224 107.094 24.8798L107.193 24.5792L107.128 24.2702C106.647 21.9976 105.989 19.7143 105.336 17.4719C104.679 15.2152 104.027 13.0021 103.529 10.8073L103.529 10.8063C103.237 9.51982 103.21 8.483 103.478 7.67888C103.725 6.93531 104.27 6.25296 105.454 5.72876C107.014 5.03862 108.803 4.5228 110.676 4.05046Z" fill="var(--fill-0, #0000FF)" stroke="var(--stroke-0, #FFFCF8)" stroke-width="2.34316"/>
</g>
</svg>
