<svg preserveAspectRatio="none" width="100%" height="100%" overflow="visible" style="display: block;" viewBox="0 0 24.375 24.375" fill="none" xmlns="http://www.w3.org/2000/svg">
<g id="menu_book">
<mask id="mask0_0_34" style="mask-type:alpha" maskUnits="userSpaceOnUse" x="0" y="0" width="25" height="25">
<rect id="Bounding box" width="24.375" height="24.375" fill="var(--fill-0, #0051FF)"/>
</mask>
<g mask="url(#mask0_0_34)">
<path id="menu_book_2" d="M14.2184 10.0546V8.32805C14.777 8.09107 15.3483 7.91334 15.9323 7.79485C16.5163 7.67636 17.1299 7.61711 17.7731 7.61711C18.2132 7.61711 18.6449 7.65097 19.0681 7.71867C19.4912 7.78638 19.9059 7.87102 20.3122 7.97258V9.59758C19.9059 9.44524 19.4955 9.33098 19.0807 9.25481C18.666 9.17863 18.2302 9.14055 17.7731 9.14055C17.1299 9.14055 16.5121 9.22095 15.9196 9.38176C15.3272 9.54257 14.7601 9.76685 14.2184 10.0546ZM14.2184 15.6405V13.914C14.777 13.677 15.3483 13.4993 15.9323 13.3808C16.5163 13.2623 17.1299 13.203 17.7731 13.203C18.2132 13.203 18.6449 13.2369 19.0681 13.3046C19.4912 13.3723 19.9059 13.457 20.3122 13.5585V15.1835C19.9059 15.0312 19.4955 14.9169 19.0807 14.8407C18.666 14.7646 18.2302 14.7265 17.7731 14.7265C17.1299 14.7265 16.5121 14.8027 15.9196 14.955C15.3272 15.1073 14.7601 15.3359 14.2184 15.6405ZM14.2184 12.8476V11.121C14.777 10.884 15.3483 10.7063 15.9323 10.5878C16.5163 10.4693 17.1299 10.4101 17.7731 10.4101C18.2132 10.4101 18.6449 10.4439 19.0681 10.5116C19.4912 10.5794 19.9059 10.664 20.3122 10.7655V12.3905C19.9059 12.2382 19.4955 12.1239 19.0807 12.0478C18.666 11.9716 18.2302 11.9335 17.7731 11.9335C17.1299 11.9335 16.5121 12.0139 15.9196 12.1747C15.3272 12.3355 14.7601 12.5598 14.2184 12.8476ZM6.60126 16.2499C7.39683 16.2499 8.17124 16.3388 8.9245 16.5165C9.67775 16.6943 10.4268 16.9609 11.1716 17.3163V7.31242C10.4776 6.90617 9.74123 6.60149 8.96259 6.39836C8.18394 6.19524 7.39683 6.09367 6.60126 6.09367C5.99188 6.09367 5.38674 6.15292 4.78583 6.27141C4.18492 6.3899 3.60516 6.56763 3.04657 6.80461V16.8593C3.63902 16.6562 4.22723 16.5038 4.81122 16.4023C5.3952 16.3007 5.99188 16.2499 6.60126 16.2499ZM13.2028 17.3163C13.9476 16.9609 14.6966 16.6943 15.4499 16.5165C16.2031 16.3388 16.9776 16.2499 17.7731 16.2499C18.3825 16.2499 18.9792 16.3007 19.5632 16.4023C20.1472 16.5038 20.7354 16.6562 21.3278 16.8593V6.80461C20.7692 6.56763 20.1895 6.3899 19.5886 6.27141C18.9877 6.15292 18.3825 6.09367 17.7731 6.09367C16.9776 6.09367 16.1905 6.19524 15.4118 6.39836C14.6332 6.60149 13.8968 6.90617 13.2028 7.31242V17.3163ZM12.1872 20.3124C11.3747 19.6692 10.4945 19.1698 9.54657 18.8144C8.59865 18.4589 7.61688 18.2812 6.60126 18.2812C5.89032 18.2812 5.19208 18.3743 4.50653 18.5605C3.82098 18.7467 3.16506 19.009 2.53876 19.3476C2.18329 19.5338 1.84052 19.5253 1.51044 19.3222C1.18036 19.1191 1.01532 18.8228 1.01532 18.4335V6.19524C1.01532 6.00904 1.06187 5.8313 1.15497 5.66203C1.24807 5.49276 1.38772 5.36581 1.57391 5.28117C2.35256 4.87492 3.16506 4.57024 4.01141 4.36711C4.85777 4.16399 5.72105 4.06242 6.60126 4.06242C7.58303 4.06242 8.54364 4.18938 9.48309 4.44328C10.4225 4.69719 11.3239 5.07805 12.1872 5.58586C13.0505 5.07805 13.9518 4.69719 14.8913 4.44328C15.8307 4.18938 16.7914 4.06242 17.7731 4.06242C18.6533 4.06242 19.5166 4.16399 20.363 4.36711C21.2093 4.57024 22.0218 4.87492 22.8005 5.28117C22.9867 5.36581 23.1263 5.49276 23.2194 5.66203C23.3125 5.8313 23.3591 6.00904 23.3591 6.19524V18.4335C23.3591 18.8228 23.194 19.1191 22.864 19.3222C22.5339 19.5253 22.1911 19.5338 21.8356 19.3476C21.2093 19.009 20.5534 18.7467 19.8679 18.5605C19.1823 18.3743 18.4841 18.2812 17.7731 18.2812C16.7575 18.2812 15.7757 18.4589 14.8278 18.8144C13.8799 19.1698 12.9997 19.6692 12.1872 20.3124Z" fill="var(--fill-0, #0000FF)"/>
</g>
</g>
</svg>
